<svg data-v-423bf9ae="" xmlns="http://www.w3.org/2000/svg" viewBox="0 0 287.020413692273 60" class="font"><!----><!----><!----><g data-v-423bf9ae="" id="6baf6ffa-9922-49ce-a169-28960f10f0c4" fill="#25BDD6" transform="matrix(6.122449456230433,0,0,6.122449456230433,2.6938776589838085,-11.816328097660907)"><path d="M1.40 7.57L3.09 1.94L4.74 1.94Q4.77 2.08 6.34 7.29L6.34 7.29L6.64 7.29L6.64 10.51L5.96 10.51L5.96 10.76L6.64 10.76L6.64 11.45L4.82 11.45L4.82 9.47L2.59 9.47L2.59 10.31L1.69 10.31L1.69 11.73L0.03 11.73L0.03 11.63L0.16 11.63L0.16 10.31L0.84 10.31L0.84 7.57L1.40 7.57ZM3.90 4.70L3.86 4.70L3.86 4.72Q3.65 5.88 3.04 8.39L3.04 8.39L4.57 8.39L4.57 7.29L4.44 7.29Q3.90 4.91 3.90 4.70L3.90 4.70ZM0.94 7.08L0.94 7.08L1.09 7.08Q1.09 7.14 1.16 7.18L1.16 7.18Q1.16 7.12 1.22 7.08L1.22 7.08L1.34 7.08L1.34 7.09Q1.22 7.25 1.22 7.27L1.22 7.27Q1.25 7.33 1.35 7.47L1.35 7.47L1.35 7.51L1.29 7.51Q1.20 7.51 1.16 7.37L1.16 7.37Q1.05 7.51 1.04 7.51L1.04 7.51L0.96 7.51Q0.92 7.51 0.92 7.47L0.92 7.47Q0.94 7.47 1.06 7.29L1.06 7.29L1.06 7.26Q0.94 7.09 0.94 7.08ZM-0.44 7.57L-0.44 7.27L0.84 7.27L0.84 7.57L-0.44 7.57ZM6.69 7.59L6.69 7.49L7.03 7.49L7.03 7.57L6.82 7.83L7.02 7.83Q7.05 7.84 7.05 7.87L7.05 7.87L7.05 7.90Q7.05 7.94 7.02 7.94L7.02 7.94L6.67 7.94L6.67 7.85L6.88 7.59L6.69 7.59ZM4.16 8.36L4.16 7.92L4.26 7.92L4.26 8.08L4.44 7.92L4.54 7.92L4.54 7.94L4.40 8.10Q4.56 8.33 4.56 8.36L4.56 8.36L4.46 8.36Q4.44 8.36 4.31 8.18L4.31 8.18Q4.29 8.18 4.26 8.23L4.26 8.23L4.26 8.36L4.16 8.36ZM6.72 8.07L6.72 8.07L6.92 8.07Q7.07 8.09 7.07 8.22L7.07 8.22L7.02 8.30Q7.07 8.35 7.07 8.50L7.07 8.50L7.07 8.51L6.97 8.51Q6.95 8.35 6.92 8.35L6.92 8.35L6.80 8.35L6.80 8.51L6.72 8.51Q6.69 8.51 6.69 8.48L6.69 8.48L6.69 8.10Q6.69 8.07 6.72 8.07ZM6.95 8.16L6.80 8.16L6.80 8.26L6.92 8.26Q6.95 8.26 6.95 8.23L6.95 8.23L6.95 8.16ZM6.69 8.64L6.69 8.64L7 8.64Q7.03 8.65 7.03 8.67L7.03 8.67L7.03 8.71Q7.03 8.74 7 8.74L7 8.74L6.90 8.74L6.90 9.09L6.79 9.09L6.79 8.74L6.69 8.74Q6.65 8.74 6.65 8.71L6.65 8.71L6.65 8.67Q6.66 8.64 6.69 8.64ZM6.79 9.67L6.65 9.22L6.73 9.22Q6.78 9.22 6.84 9.50L6.84 9.50L6.85 9.50Q6.93 9.26 6.93 9.22L6.93 9.22L7.05 9.22Q6.92 9.67 6.88 9.67L6.88 9.67L6.79 9.67ZM2.67 9.75L3.09 9.60L3.09 9.69Q3.09 9.71 2.82 9.80L2.82 9.80L2.82 9.82L3.09 9.91L3.09 10.01L2.67 9.86L2.67 9.75ZM0.53 9.80L0.53 9.80L0.58 9.80Q0.64 9.80 0.76 10.25L0.76 10.25L0.66 10.25Q0.66 10.23 0.63 10.14L0.63 10.14L0.48 10.14Q0.46 10.25 0.43 10.25L0.43 10.25L0.35 10.25Q0.49 9.80 0.53 9.80ZM6.87 9.80L6.87 9.80L6.92 9.80Q7.08 9.80 7.12 10.03L7.12 10.03Q7.07 10.26 6.90 10.26L6.90 10.26Q6.67 10.22 6.67 10.03L6.67 10.03Q6.71 9.80 6.87 9.80ZM6.79 10.01L6.79 10.01L6.79 10.03Q6.79 10.12 6.87 10.17L6.87 10.17L6.92 10.17Q7 10.12 7 10.03L7 10.03L7 10.01Q6.99 9.88 6.88 9.88L6.88 9.88Q6.79 9.92 6.79 10.01ZM0.56 9.95L0.55 9.95Q0.51 10.06 0.51 10.06L0.51 10.06L0.59 10.06L0.56 9.95ZM4.82 11.73L4.82 11.57L7.02 11.57L7.02 11.73L4.82 11.73ZM7.10 6.33L7.10 1.94L8.98 1.94L8.98 7.12L8.09 7.12L8.09 7.39L8.98 7.39L8.98 8.36Q8.98 9.69 9.45 9.91L9.45 9.91Q9.69 10.06 10.05 10.06L10.05 10.06L10.63 10.06L10.63 8.34L11.14 8.34L11.14 1.94L13.02 1.94L13.02 7.96L12.34 7.96L12.34 8.39L13.02 8.39Q13.00 8.61 13.00 8.72L13.00 8.72L13.00 10.64L12.02 10.64L12.02 11.73L7.64 11.73L7.64 10.38L7.24 10.38L7.24 6.33L7.10 6.33ZM8.98 7.39L8.98 7.12L10.05 7.12L10.05 7.39L8.98 7.39ZM13.11 3.57L13.11 1.93L18.85 1.93L18.85 3.57L16.95 3.57L16.95 10.34L17.81 10.34L17.81 10.54L16.95 10.54L16.95 11.29L16.44 11.29L16.44 11.55L16.80 11.55L16.80 11.73L15.06 11.73Q15.03 11.73 15.03 11.70L15.03 11.70L15.03 3.57L13.11 3.57ZM16.94 10.34L16.28 10.34L16.28 10.54L16.94 10.54L16.94 10.34ZM22.19 1.95L22.19 1.95Q24.29 1.95 24.96 3.42L24.96 3.42Q25.33 4.14 25.33 6.19L25.33 6.19L25.33 6.23L24.61 6.23L24.61 6.56L25.33 6.56L25.33 10.10L24.86 10.10L24.86 11.37L23.91 11.37L23.91 11.73L20.58 11.73L20.58 11.37L20.18 11.37L20.18 10.10L19.33 10.10L19.33 9.10L19.83 9.10L19.83 8.57L19.33 8.57L19.33 9.10L18.12 9.10L18.12 8.57L19.03 8.57Q19.02 7.38 19.02 6.74L19.02 6.74L19.02 5.91Q19.02 3.58 19.80 2.80L19.80 2.80Q20.52 1.95 22.19 1.95ZM20.99 5.32L20.99 5.32L21.01 5.32L20.99 5.35L20.99 6.23L20.26 6.23L20.26 6.56L20.99 6.56Q20.98 8.67 20.98 9.75L20.98 9.75L20.98 10.10L22.61 10.10L22.61 9.56L23.37 9.56L23.37 9.54Q23.37 8.54 23.35 6.75L23.35 6.75Q23.35 6.68 23.37 6.38L23.37 6.38Q23.37 4.45 23.14 4.01L23.14 4.01Q22.91 3.58 22.29 3.58L22.29 3.58L22.05 3.58Q21.30 3.58 21.12 4.24L21.12 4.24Q21.04 4.56 20.99 5.32ZM25.33 6.56L25.33 6.23L26.51 6.23L26.51 6.56L25.33 6.56ZM26.21 7.27L26.21 1.95L28.73 1.95Q30.95 1.95 31.56 3.09L31.56 3.09Q31.92 3.81 31.92 4.93L31.92 4.93Q31.90 5.13 31.90 5.33L31.90 5.33L33.30 5.33L33.30 5.80L31.86 5.80L31.86 5.79Q31.89 5.37 31.89 5.33L31.89 5.33L31.08 5.33L31.08 5.80L31.86 5.80L31.86 7.46L30.24 7.46L30.24 8.04L30.23 8.04Q28.36 8.05 28.12 8.05L28.12 8.05L28.12 8.91L27.77 8.91L27.77 10.45L27.97 10.45L27.97 11.73L26.43 11.73L26.43 11.13L26.22 11.13L26.22 10.62Q26.22 9.75 26.21 7.77L26.21 7.77L27.14 7.77L27.14 7.27L26.21 7.27ZM28.94 3.61L28.12 3.61L28.12 6.39L28.70 6.39L28.70 5.99L29.85 5.99Q30.08 5.78 30.08 4.80L30.08 4.80Q30.08 3.86 29.66 3.73L29.66 3.73Q29.50 3.61 28.94 3.61L28.94 3.61ZM31.94 5.92L31.97 5.91L32.02 5.91Q32.10 5.97 32.10 6.04L32.10 6.04L32.21 5.91L32.28 5.91L32.28 5.93Q32.15 6.11 32.15 6.28L32.15 6.28L32.10 6.28Q32.07 6.28 32.05 6.08L32.05 6.08Q32.03 6.08 31.94 5.92L31.94 5.92ZM31.95 6.47L31.95 6.39L32.25 6.39L32.25 6.47L32.15 6.47L32.15 6.73Q32.15 6.77 32.12 6.77L32.12 6.77L32.08 6.77Q32.05 6.77 32.05 6.73L32.05 6.73L32.05 6.47L31.95 6.47ZM36.96 1.93L36.96 1.93Q39.01 1.93 39.55 3.21L39.55 3.21Q39.70 3.53 39.70 3.63L39.70 3.63L38.83 3.63L38.83 3.89L39.76 3.89L39.76 3.88Q39.76 3.81 39.70 3.63L39.70 3.63L41.28 3.63L41.28 3.89L39.78 3.89L39.78 3.91Q39.89 4.46 39.94 5.09L39.94 5.09Q39.94 5.13 38.14 5.22L38.14 5.22L38.14 5.21Q38.14 3.58 37.02 3.58L37.02 3.58L36.83 3.58Q35.99 3.58 35.81 4.29L35.81 4.29Q35.66 4.89 35.66 5.87L35.66 5.87L35.66 7.20L35.64 7.40L35.02 7.40L35.02 7.71L35.64 7.71L35.64 10.08L38.28 10.08L38.28 7.62L39.79 7.62L39.79 10.08L38.95 10.08L38.95 11.60L37.19 11.60L37.19 11.73L35.83 11.73L35.83 11.60L34.44 11.60L34.44 10.84L35.36 10.84L35.36 10.51L33.98 10.51L33.98 9.39L33.39 9.39L33.39 8.01L33.70 8.01Q33.68 7.15 33.68 6.66L33.68 6.66Q33.68 4.42 33.90 3.84L33.90 3.84Q34.10 3.17 34.56 2.69L34.56 2.69Q35.37 1.93 36.96 1.93ZM35.77 9.59L35.77 9.59L35.85 9.59L35.85 9.93L36.05 9.93L36.05 10.04L35.77 10.04Q35.75 10.04 35.75 10.00L35.75 10.00L35.75 9.63Q35.75 9.59 35.77 9.59ZM37.83 9.60L37.83 9.59L37.93 9.59Q38.01 9.66 38.01 9.72L38.01 9.72Q38.03 9.72 38.13 9.59L38.13 9.59L38.21 9.59L38.21 9.63Q38.10 9.78 38.10 9.84L38.10 9.84Q38.12 9.84 38.23 10.01L38.23 10.01L38.23 10.04L38.13 10.04L38.01 9.91Q37.95 10.02 37.92 10.04L37.92 10.04L37.82 10.04Q37.85 9.97 37.97 9.80L37.97 9.80L37.83 9.60ZM39.18 10.19L39.18 10.19Q39.35 10.23 39.35 10.28L39.35 10.28L39.35 10.35L39.28 10.35L39.22 10.28L39.15 10.28Q39.12 10.29 39.12 10.32L39.12 10.32L39.12 10.35Q39.37 10.40 39.37 10.46L39.37 10.46L39.37 10.51Q39.37 10.64 39.22 10.64L39.22 10.64L39.15 10.64Q39.06 10.64 39.01 10.55L39.01 10.55L39.01 10.48L39.10 10.48Q39.10 10.56 39.20 10.56L39.20 10.56L39.22 10.56Q39.24 10.56 39.27 10.51L39.27 10.51Q39.27 10.49 39.03 10.40L39.03 10.40L39.02 10.36L39.02 10.28Q39.02 10.23 39.18 10.19ZM40.63 7.49L40.63 1.96L43.98 1.96Q45.66 1.96 46.15 3.14L46.15 3.14Q46.36 3.75 46.36 4.53L46.36 4.53L46.36 4.94Q46.36 6.36 45.74 7.11L45.74 7.11L45.03 7.11L45.03 7.47L46.12 7.47L46.12 9.81L45.47 9.81L45.47 10.17L46.44 10.17L46.44 11.55L44.41 11.55L44.41 9.34L43.62 9.34L43.62 7.92L42.25 7.92L42.25 10.34L42.55 10.34L42.55 11.73L40.66 11.73Q40.63 11.73 40.63 11.70L40.63 11.70L40.63 7.77L41.47 7.77L41.47 7.49L40.63 7.49ZM43.35 3.55L42.55 3.55L42.55 6.31L43.01 6.31Q44.06 6.31 44.22 6.11L44.22 6.11Q44.39 6.00 44.49 5.67L44.49 5.67L45.21 5.67L45.21 5.32L44.56 5.32L44.56 5.35Q44.50 5.67 44.47 5.67L44.47 5.67L43.54 5.67L43.54 5.32L44.52 5.32Q44.56 5.32 44.56 5.29L44.56 5.29Q44.57 4.87 44.57 4.81L44.57 4.81Q44.57 3.90 44.26 3.69L44.26 3.69Q44.01 3.55 43.35 3.55L43.35 3.55ZM42.43 8.16L42.33 8.00L42.42 8.00Q42.49 8.03 42.49 8.10L42.49 8.10Q42.51 8.10 42.55 8.00L42.55 8.00L42.65 8.00L42.65 8.02L42.55 8.16Q42.55 8.18 42.66 8.35L42.66 8.35L42.66 8.36L42.58 8.36Q42.57 8.36 42.49 8.24L42.49 8.24Q42.44 8.35 42.40 8.36L42.40 8.36L42.32 8.36Q42.43 8.19 42.43 8.16L42.43 8.16ZM42.35 8.56L42.35 8.49L42.65 8.49L42.65 8.54L42.46 8.77L42.65 8.77L42.65 8.85L42.33 8.85L42.33 8.79L42.51 8.56L42.35 8.56Z"></path></g><!----><!----></svg>